<?xml version="1.0" encoding="utf-8"?>
<!-- Generator: Adobe Illustrator 25.4.1, SVG Export Plug-In . SVG Version: 6.00 Build 0)  -->
<svg version="1.1" id="Ebene_1" xmlns="http://www.w3.org/2000/svg" xmlns:xlink="http://www.w3.org/1999/xlink" x="0px" y="0px"
	 viewBox="0 0 425.2 234.6" style="enable-background:new 0 0 425.2 234.6;" xml:space="preserve">
<style type="text/css">
	.st0{fill:#1446EB;}
</style>
<g>
	<g>
		<g>
			<rect x="78.6" y="78" class="st0" width="10.8" height="78.5"/>
		</g>
	</g>
	<path class="st0" d="M173.1,76.2c-22.3,0-57,63.2-66,80.2h12c20.6-39.2,45.5-69.2,54-69.2c8.5,0,33.4,30,54,69.2h12
		C230.1,139.4,195.4,76.2,173.1,76.2z"/>
	<path class="st0" d="M297.5,157.6c22.3,0,55.6-62.4,64.6-79.5h-12c-20.6,39.2-44.1,68.5-52.6,68.5c-8.5,0-32-29.3-52.6-68.5h-12
		C241.9,95.1,275.3,157.6,297.5,157.6z"/>
</g>
</svg>
